<svg xmlns="http://www.w3.org/2000/svg" width="15.802" height="15.766" viewBox="0 0 15.802 15.766">
  <g id="call-answer" transform="translate(0 -0.394)">
    <g id="Group_14" data-name="Group 14" transform="translate(0 0.394)">
      <g id="Group_13" data-name="Group 13" transform="translate(0 0)">
        <path id="Path_77" data-name="Path 77" d="M15.447,12.864l-2.44-2.441a1.272,1.272,0,0,0-1.794.034L9.983,11.686l-.243-.135A12.235,12.235,0,0,1,6.784,9.412,12.3,12.3,0,0,1,4.64,6.45c-.046-.082-.089-.162-.132-.237l.825-.824.406-.406a1.271,1.271,0,0,0,.033-1.794L3.331.748A1.271,1.271,0,0,0,1.537.781L.85,1.473l.019.019a3.977,3.977,0,0,0-.567,1A4.145,4.145,0,0,0,.05,3.505c-.322,2.671.9,5.113,4.211,8.426,4.579,4.579,8.27,4.233,8.429,4.216a4.123,4.123,0,0,0,1.017-.255,3.964,3.964,0,0,0,1-.564l.015.013.7-.682A1.274,1.274,0,0,0,15.447,12.864Z" transform="translate(0 -0.394)"/>
      </g>
    </g>
  </g>
</svg>
