<svg xmlns="http://www.w3.org/2000/svg" width="18.583" height="17.304" viewBox="0 0 18.583 17.304">
  <g id="home-icon-silhouette" transform="translate(0 -17.047)">
    <g id="Group_27" data-name="Group 27" transform="translate(0.001 17.047)">
      <g id="Group_26" data-name="Group 26" transform="translate(0 0)">
        <path id="Path_87" data-name="Path 87" d="M18.272,24.867,15.456,22.05V18.8a1.065,1.065,0,0,0-2.13,0V19.92l-2.1-2.1a2.8,2.8,0,0,0-3.874,0L.312,24.867a1.065,1.065,0,0,0,1.507,1.506l7.041-7.042a.629.629,0,0,1,.862,0l7.043,7.043a1.065,1.065,0,1,0,1.507-1.506Z" transform="translate(-0.001 -17.047)"/>
        <path id="Path_88" data-name="Path 88" d="M75.714,127.9a.523.523,0,0,0-.74,0l-6.194,6.192a.524.524,0,0,0-.153.37v4.517a1.919,1.919,0,0,0,1.919,1.919h3.067V136.15h3.462V140.9h3.067a1.919,1.919,0,0,0,1.919-1.919v-4.517a.522.522,0,0,0-.153-.37Z" transform="translate(-66.053 -123.595)"/>
      </g>
    </g>
  </g>
</svg>
