<svg xmlns="http://www.w3.org/2000/svg" width="115.983" height="84.213" viewBox="0 0 115.983 84.213">
  <g id="installation_2" data-name="installation 2" transform="translate(-0.009)">
    <g id="Слой_1" data-name="Слой 1" transform="translate(0.009)">
      <path id="Path_99" data-name="Path 99" d="M115.793,66.379c-.085-1.591-1.318-2.461-2.868-2.689a8.874,8.874,0,0,0-2.461-.027c-1.977.287-2.505-.448-2.5-2.452.076-18.824.054-37.649.045-56.473C108.021.9,107.1,0,103.266,0H13.178C8.624,0,7.884.757,7.884,5.338v54c0,4.15,0,4.15-4.132,4.321C1.215,63.77.081,64.886.023,67.392c-.031,1.268,0,2.541,0,3.81.04,7.9,5.105,12.953,13.065,13,5,.031,10.008,0,15.015,0h74.617c6.683,0,11.46-3.514,12.881-9.569C116.232,71.923,115.946,69.126,115.793,66.379ZM34.624,24.521c0-1.569.269-2.281,2.053-2.138a62.119,62.119,0,0,0,6.723,0c1.035-.027,2.51.627,2.447-1.5-.054-1.829-.614-3.137-2.559-3.258-2.16-.13-4.33,0-6.494-.063-.9,0-2.192.587-2.142-1.282s1.394-1.165,2.241-1.206c2.012-.094,4.034-.076,6.046,0,3.617.108,5.45,1.748,5.378,5.378-.045,2.438,1.4,1.842,2.734,1.986,1.609.17,2.116-.448,1.977-2.017-.121-1.345.027-2.689-.04-4.034-.063-1.138.5-1.345,1.484-1.376s1.255.448,1.219,1.345c-.058,1.564,0,3.137,0,4.7-.04,1.994,1.452,1.268,2.4,1.3s2.241.542,2.178-1.286c-.058-1.569.031-3.137-.027-4.706-.036-.923.215-1.345,1.228-1.345s1.537.233,1.488,1.345c-.067,1.493.076,2.994-.04,4.482-.143,1.882,1.116,1.587,2.2,1.537,1-.045,2.241.506,2.295-1.448.134-4.482,1.721-5.867,6.252-5.894,2.017,0,4.034.027,6.051,0,.937,0,1.345.291,1.345,1.286s-.381,1.291-1.345,1.273c-2.241-.049-4.482,0-6.723,0A2.827,2.827,0,0,0,70.3,18.865c-1.165,1.959-.229,3.559,2.044,3.559,2.465,0,4.93.045,7.4,0,1.1-.027,1.582.224,1.578,1.466q-.067,14.45,0,28.9c0,1.488-.784,1.466-1.838,1.466q-10.757-.036-21.514,0c-7.1,0-14.19-.036-21.285.031-1.5,0-2.057-.309-2.044-1.959C34.7,43.027,34.682,33.781,34.624,24.521Zm74.549,48.325c-.65,2.954-2.833,4.67-6.181,4.675H57.984q-22.5,0-44.981.018c-3.644,0-5.916-1.99-6.315-5.311-.152-1.3.085-1.9,1.587-1.9,8.583.054,17.166.027,25.749,0,.852,0,1.591.022,2.017.991.632,1.43,1.968,1.748,3.362,1.752H76.571c1.215,0,2.555-.161,3.1-1.367.6-1.309,1.51-1.38,2.689-1.376,8.287.027,16.583.081,24.853-.04C109.366,70.256,109.55,71.138,109.173,72.846Z" transform="translate(-0.009 0)" fill="rgba(0,0,0,0.8)"/>
      <path id="Path_100" data-name="Path 100" d="M117.959,89.721c1.6,0,2.411-1.385,2.649-2.815.372-2.241-1.43-1.43-2.582-1.636-.941.408-2.985-.9-2.716,1.573C115.472,88.349,116.305,89.73,117.959,89.721Z" transform="translate(-63.619 -47.052)" fill="rgba(0,0,0,0.8)"/>
      <path id="Path_101" data-name="Path 101" d="M119.611,78.4c1.2,0,1.345-.65,1.242-1.587.166-1.1-.4-1.389-1.416-1.4s-1.4.448-1.416,1.475C118.011,78.082,118.459,78.423,119.611,78.4Z" transform="translate(-65.127 -41.617)" fill="rgba(0,0,0,0.8)"/>
      <path id="Path_102" data-name="Path 102" d="M133.992,89.72c1.614,0,2.465-1.345,2.689-2.81.359-2.241-1.434-1.439-2.586-1.649-.941.417-2.99-.919-2.716,1.578C131.55,88.317,132.356,89.711,133.992,89.72Z" transform="translate(-72.485 -47.046)" fill="rgba(0,0,0,0.8)"/>
      <path id="Path_103" data-name="Path 103" d="M151.784,78.4c1-.04,1.573-.278,1.4-1.5.215-1.031-.224-1.519-1.425-1.488-1.008.027-1.457.3-1.448,1.4S150.547,78.453,151.784,78.4Z" transform="translate(-82.945 -41.615)" fill="rgba(0,0,0,0.8)"/>
      <path id="Path_104" data-name="Path 104" d="M150.061,89.752c1.663,0,2.505-1.345,2.689-2.882.282-2.286-1.564-1.3-2.474-1.542-2.945,0-3.088,0-2.864,1.582C147.636,88.358,148.434,89.752,150.061,89.752Z" transform="translate(-81.307 -47.079)" fill="rgba(0,0,0,0.8)"/>
      <path id="Path_105" data-name="Path 105" d="M135.642,78.384c1.112,0,1.493-.448,1.345-1.461.121-1.008-.215-1.5-1.345-1.524-1.224-.022-1.5.493-1.493,1.6S134.638,78.357,135.642,78.384Z" transform="translate(-74.028 -41.605)" fill="rgba(0,0,0,0.8)"/>
      <path id="Path_106" data-name="Path 106" d="M89.351,83.364c5.594-.072,11.205-.031,16.79-.027,5.674,0,11.348-.04,17.032.027,1.345,0,1.838-.3,1.815-1.735q-.121-7.494,0-15c0-1.461-.56-1.708-1.842-1.7q-17.032.058-34.032,0c-1.3,0-1.842.287-1.793,1.73.081,4.93.1,9.86,0,14.791C87.236,83.1,87.877,83.382,89.351,83.364Zm2.5-15.606c4.773.04,9.551,0,14.342,0,4.7,0,9.412.045,14.1-.027,1.277,0,1.918.2,1.873,1.667q-.128,4.706,0,9.412c.04,1.345-.556,1.609-1.726,1.6q-14.342-.04-28.645,0c-1.282,0-1.676-.448-1.649-1.681.072-3.137.09-6.275,0-9.412C90.082,67.969,90.678,67.749,91.848,67.758Z" transform="translate(-48.183 -35.828)" fill="rgba(0,0,0,0.8)"/>
      <path id="Path_107" data-name="Path 107" d="M103.374,78.409c1.1,0,1.475-.448,1.3-1.452.143-.991-.117-1.546-1.264-1.537-1.067,0-1.614.238-1.6,1.484C101.823,78.082,102.249,78.423,103.374,78.409Z" transform="translate(-56.182 -41.617)" fill="rgba(0,0,0,0.8)"/>
      <path id="Path_108" data-name="Path 108" d="M101.758,89.708c1.2.134,2.761-1.717,2.81-3.232-.448-2.089-2.241-1-3.46-1.2-1.017-.166-2.241-.229-2.012,1.452C99.3,88.328,100.059,89.511,101.758,89.708Z" transform="translate(-54.67 -46.994)" fill="rgba(0,0,0,0.8)"/>
    </g>
  </g>
</svg>
