<svg id="Odnoklassniki" xmlns="http://www.w3.org/2000/svg" width="51.261" height="51" viewBox="0 0 51.261 51">
  <path id="Path_82" data-name="Path 82" d="M51.262,43.537A7.463,7.463,0,0,1,43.8,51H7.463A7.463,7.463,0,0,1,0,43.537V7.463A7.463,7.463,0,0,1,7.463,0H43.8a7.463,7.463,0,0,1,7.463,7.463Z" fill="#faab62"/>
  <path id="Path_83" data-name="Path 83" d="M52.735,45.08a7.386,7.386,0,0,1-7.387,7.386H9.386A7.386,7.386,0,0,1,2,45.08V9.376A7.386,7.386,0,0,1,9.386,1.99H45.348a7.387,7.387,0,0,1,7.387,7.386v35.7Z" transform="translate(-1.737 -1.728)" fill="#f7931e"/>
  <path id="Path_84" data-name="Path 84" d="M133.806,57.9a9.2,9.2,0,1,0,9.2,9.2A9.2,9.2,0,0,0,133.806,57.9Zm0,13a3.8,3.8,0,1,1,3.8-3.8A3.8,3.8,0,0,1,133.806,70.9Z" transform="translate(-108.204 -50.279)" fill="#fff"/>
  <g id="Group_25" data-name="Group 25" transform="translate(15.112 26.299)">
    <path id="Path_85" data-name="Path 85" d="M128.537,206.82a14.957,14.957,0,0,0,6.006-2.588,2.5,2.5,0,0,0-3.13-3.9,10.862,10.862,0,0,1-6.249,1.827,11.124,11.124,0,0,1-6.3-1.827,2.5,2.5,0,0,0-3.13,3.9,15.3,15.3,0,0,0,6.2,2.617l-5.276,5.514a2.5,2.5,0,1,0,3.6,3.472l4.9-5.222,5.4,5.255a2.5,2.5,0,1,0,3.534-3.54Z" transform="translate(-114.8 -199.78)" fill="#fff"/>
    <path id="Path_86" data-name="Path 86" d="M193.524,217.832c-.006,0,.006,0,0,0S193.53,217.832,193.524,217.832Z" transform="translate(-183.159 -215.456)" fill="#fff"/>
  </g>
</svg>
