<svg xmlns="http://www.w3.org/2000/svg" width="71.286" height="71.305" viewBox="0 0 71.286 71.305">
  <g id="replacement" transform="translate(0 0)">
    <g id="Слой_1" data-name="Слой 1">
      <path id="Path_95" data-name="Path 95" d="M14.261,0A11.754,11.754,0,0,1,15.3,1.185Q20.878,9.46,26.421,17.747c1.154,1.727.542,2.947-1.547,3.1-1.157.082-2.323.029-3.486.038-1.974.019-2.076.1-2.079,2.05V39.569c0,4.7.067,9.4-.041,14.1-.035,1.483.475,1.74,1.8,1.721,5.014-.07,10.033,0,15.047-.048a3.6,3.6,0,0,1,3.334,1.689c1.616,2.478,3.3,4.912,4.912,7.39.951,1.445.577,2.145-1.182,2.149-9.824.025-19.648.051-29.473,0-3.486-.019-5.761-2.431-5.806-6-.051-4.012-.016-8.027-.016-12.043V23.017c0-2.076-.048-2.114-2.136-2.126l-3.321-.016A2.685,2.685,0,0,1,0,19.648v-.634L12.676,0Z" fill="#ffd800"/>
      <path id="Path_96" data-name="Path 96" d="M114.01,81.406c-2.443-3.058-4.405-6.449-6.655-9.647-1.844-2.64-3.613-5.334-5.387-8.021-1.268-1.9-.634-3.106,1.673-3.207,1.372-.06,2.748-.048,4.12-.019,1.008.022,1.4-.406,1.4-1.423q-.029-15.846,0-31.691c0-1.192-.561-1.388-1.566-1.385-5.121.029-10.243-.029-15.367.035a3.744,3.744,0,0,1-3.553-1.863c-1.553-2.456-3.226-4.833-4.808-7.267-.887-1.366-.523-2.092,1.119-2.1,9.926-.029,19.854-.063,29.79.019,3.432.029,5.622,2.535,5.625,6.161q.025,18.539,0,37.078c0,2.424,0,2.424,2.453,2.428h3.007a2.479,2.479,0,0,1,2.393,1.242V62.7c-.418.605-.843,1.207-1.268,1.819q-5.685,8.449-11.39,16.888Z" transform="translate(-56.966 -10.102)" fill="#ffd800"/>
    </g>
  </g>
</svg>
