                    <svg xmlns="http://www.w3.org/2000/svg" width="274" height="66.736" viewBox="0 0 274 66.736">
                        <g id="Group_43" data-name="Group 43" transform="translate(4.234 -338.622)">
                            <path id="Path_120" data-name="Path 120"
                                  d="M210.417,369.192a5.524,5.524,0,0,0-4.222,1.793,6.427,6.427,0,0,0-1.683,4.591,6.514,6.514,0,0,0,1.711,4.646,5.566,5.566,0,0,0,4.215,1.82,5.631,5.631,0,0,0,4.277-1.793,6.522,6.522,0,0,0,1.7-4.694,6.349,6.349,0,0,0-1.7-4.6A5.726,5.726,0,0,0,210.417,369.192Zm5.755-4.475h5.461v21.8h-5.461V384.2a10.677,10.677,0,0,1-3.216,2.182,9.067,9.067,0,0,1-3.5.671,9.727,9.727,0,0,1-7.322-3.271,11.358,11.358,0,0,1-3.086-8.122,11.669,11.669,0,0,1,2.99-8.259,9.536,9.536,0,0,1,7.253-3.216,9.361,9.361,0,0,1,3.688.732,10.144,10.144,0,0,1,3.189,2.2Zm-37.868,21.8H175.4v-21.8h5.338v12.8l11.167-12.8h2.627v21.8h-5.337V373.975Zm-21.486-21.726-6.474,16.471h12.947Zm-2.888-7.753H159.6l9.525,24.224H172.4v9.648h-5.42v-4.393H146.615v4.393H141.2v-9.648h3.278Z"
                                  transform="translate(-64.13 -8.121)" fill="#281e85" fill-rule="evenodd"/>
                            <path id="Path_121" data-name="Path 121"
                                  d="M388.855,374.827a5.524,5.524,0,0,0-4.222,1.793,6.429,6.429,0,0,0-1.683,4.591,6.514,6.514,0,0,0,1.711,4.646,5.567,5.567,0,0,0,4.215,1.82,5.63,5.63,0,0,0,4.277-1.793,6.522,6.522,0,0,0,1.7-4.694,6.349,6.349,0,0,0-1.7-4.6A5.725,5.725,0,0,0,388.855,374.827Zm5.755-4.475h5.461v21.8h-5.461v-2.319a10.686,10.686,0,0,1-3.216,2.182,9.066,9.066,0,0,1-3.5.671,9.726,9.726,0,0,1-7.322-3.271,11.356,11.356,0,0,1-3.086-8.122,11.671,11.671,0,0,1,2.99-8.259,9.536,9.536,0,0,1,7.253-3.216,9.366,9.366,0,0,1,3.689.732,10.158,10.158,0,0,1,3.189,2.2ZM359.684,384.1l6.747-13.747h3.606l5.433,21.8h-5.351l-2.922-12.8-6.514,12.8h-2.245l-6.35-12.8-2.935,12.8h-5.337l5.453-21.8h3.606Zm-23.265-5.576a5.411,5.411,0,0,0-2.135-2.909,6.3,6.3,0,0,0-3.709-1.115,6.637,6.637,0,0,0-4.017,1.259,7.019,7.019,0,0,0-2,2.765Zm5.44,4.27H324.306a5.93,5.93,0,0,0,2.025,3.715,6.321,6.321,0,0,0,4.2,1.375,7.224,7.224,0,0,0,5.248-2.155l4.585,2.169a10.923,10.923,0,0,1-4.112,3.62,12.87,12.87,0,0,1-5.693,1.17,11.231,11.231,0,0,1-8.328-3.23,10.988,10.988,0,0,1-3.216-8.081,11.346,11.346,0,0,1,3.216-8.266,10.78,10.78,0,0,1,8.061-3.292,11.23,11.23,0,0,1,8.369,3.278,11.824,11.824,0,0,1,3.223,8.663Zm-34.433,4.721-3.578-9.21-3.75,9.21Zm-11.277,4.639v3.777h-4.885v-8.417h3.278l7.561-17.161h3.531l7.609,17.161h3.353v8.417H311.38v-3.777Z"
                                  transform="translate(-130.304 -13.756)" fill="#1382bb" fill-rule="evenodd"/>
                            <path id="Path_122" data-name="Path 122"
                                  d="M327.04,431.847V428.08h2.507a2.9,2.9,0,0,1,1.768.444,1.7,1.7,0,0,1,.576,1.421,1.624,1.624,0,0,1-.684,1.459,3.685,3.685,0,0,1-2.049.444Zm-.9,4.865h.9v-4.088h2.1a4.67,4.67,0,0,0,2.761-.67,2.3,2.3,0,0,0,.91-2,2.429,2.429,0,0,0-.817-2,3.686,3.686,0,0,0-2.413-.67h-3.445Zm-10.106,0v-8.605h3.083v-.816h-7.063v.816h3.083v8.605Zm-17.878,0h.9v-4.6h5.627v4.6h.9v-9.421h-.9v4.032h-5.627v-4.032h-.9Zm-13.269,0h6.636v-.819h-5.737v-3.577h5.08v-.8h-5.08v-3.4h5.561v-.816h-6.46Zm-14.3-9.421v9.421H277.1a1.53,1.53,0,0,1,1.125.59,4.886,4.886,0,0,1,.778,1.34h.482l-.16-1.93a1.456,1.456,0,0,1-.927-.3.837.837,0,0,1-.375-.684v-8.443h-.91v8.616H271.5v-8.616Zm-18.093-2h-.9a1.463,1.463,0,0,0,.494,1.164,2.46,2.46,0,0,0,1.7.51,2.516,2.516,0,0,0,1.716-.51,1.463,1.463,0,0,0,.51-1.164h-.9a1.1,1.1,0,0,1-.27.764,1.325,1.325,0,0,1-1.059.389,1.3,1.3,0,0,1-1.057-.4A1.174,1.174,0,0,1,252.5,425.294Zm3.941,2v.576l-5.174,6.915v-7.491h-.911v9.421h.911v-.6l5.174-6.929v7.532h.91v-9.421Zm-12.787,9.421h.9v-9.421h-.9Zm-7.962,0h3.337a3.735,3.735,0,0,0,2.493-.736,2.5,2.5,0,0,0,.844-2.025,2.384,2.384,0,0,0-.844-1.9,3.7,3.7,0,0,0-2.493-.764h-2.438v-3.994h-.9Zm.872-.792V432.1h2.427a2.949,2.949,0,0,1,1.823.483,1.655,1.655,0,0,1,.615,1.381,1.774,1.774,0,0,1-.615,1.486,2.943,2.943,0,0,1-1.823.469Zm-13.884.792h.9v-4.6H229.2v4.6h.9v-9.421h-.9v4.032h-5.627v-4.032h-.9Zm-6.769-3.111a2.652,2.652,0,0,1-.885,1.892,3.425,3.425,0,0,1-4.6-.417,4.779,4.779,0,0,1-.913-3.1,4.657,4.657,0,0,1,.9-3.053,3.03,3.03,0,0,1,2.48-1.073,3.286,3.286,0,0,1,2.022.59,2.362,2.362,0,0,1,.912,1.633h.886a2.943,2.943,0,0,0-1.114-2.184,4.213,4.213,0,0,0-2.706-.83,4.028,4.028,0,0,0-3.15,1.3,5.31,5.31,0,0,0-1.166,3.632,5.406,5.406,0,0,0,1.153,3.646,3.919,3.919,0,0,0,3.136,1.341,4.131,4.131,0,0,0,2.788-.911,3.492,3.492,0,0,0,1.153-2.468Zm-14.381-6.31v.576l-5.174,6.915v-7.491h-.91v9.421h.91v-.6l5.174-6.929v7.532h.911v-9.421Zm-18.912,8.6v-3.644h2.816a3.21,3.21,0,0,1,1.916.482,1.663,1.663,0,0,1,.643,1.421,1.483,1.483,0,0,1-.643,1.366,3.907,3.907,0,0,1-1.983.375Zm2.278-7.786a4.265,4.265,0,0,1,1.986.337,1.41,1.41,0,0,1,.656,1.34,1.394,1.394,0,0,1-.67,1.327,4.561,4.561,0,0,1-2.052.334h-2.2v-3.337Zm-3.175,8.605h2.814q1.18,0,1.757-.041a4.319,4.319,0,0,0,1.073-.174,2.457,2.457,0,0,0,1.139-.924,2.428,2.428,0,0,0,.428-1.4,2.5,2.5,0,0,0-.522-1.58A2.35,2.35,0,0,0,187,431.74a2.26,2.26,0,0,0,1.072-.83,1.993,1.993,0,0,0,.389-1.194,2.3,2.3,0,0,0-.309-1.192,2.238,2.238,0,0,0-.872-.833,2.728,2.728,0,0,0-.965-.334,9.19,9.19,0,0,0-1.244-.066h-3.351v9.421Zm-12.505-4.865V428.08h2.507a2.894,2.894,0,0,1,1.768.444,1.7,1.7,0,0,1,.576,1.421,1.623,1.623,0,0,1-.684,1.459,3.684,3.684,0,0,1-2.049.444Zm-.9,4.865h.9v-4.088h2.1a4.668,4.668,0,0,0,2.761-.67,2.3,2.3,0,0,0,.911-2,2.429,2.429,0,0,0-.817-2,3.688,3.688,0,0,0-2.413-.67h-3.445Zm-13.8,0h6.636v-.819h-5.737v-3.577h5.081v-.8h-5.081v-3.4h5.561v-.816h-6.46Zm-7.223-3.111a2.652,2.652,0,0,1-.885,1.892,3.425,3.425,0,0,1-4.6-.417,4.782,4.782,0,0,1-.912-3.1,4.657,4.657,0,0,1,.9-3.053,3.028,3.028,0,0,1,2.479-1.073,3.287,3.287,0,0,1,2.022.59,2.363,2.363,0,0,1,.913,1.633h.885a2.941,2.941,0,0,0-1.114-2.184,4.214,4.214,0,0,0-2.706-.83,4.026,4.026,0,0,0-3.15,1.3,5.31,5.31,0,0,0-1.167,3.632,5.409,5.409,0,0,0,1.153,3.646,3.92,3.92,0,0,0,3.136,1.341,4.132,4.132,0,0,0,2.788-.911,3.494,3.494,0,0,0,1.153-2.468Z"
                                  transform="translate(-63.582 -38.219)" fill="#565757" fill-rule="evenodd"/>
                            <path id="Path_123" data-name="Path 123"
                                  d="M40.223,373.778c-5.305,0-6.115,3.648-6.242,5.405v20.172c.129,3.627-2.788,13.153-15.211,13.153-14.366,0-16.208-10.669-16.208-14.535V378.3H-2.948A33.361,33.361,0,0,0,47.22,415.524V379.57A6.791,6.791,0,0,0,40.223,373.778Z"
                                  transform="translate(0 -15.503)" fill="#1382bb" fill-rule="evenodd"/>
                            <path id="Path_124" data-name="Path 124"
                                  d="M41.757,338.622A33.161,33.161,0,0,0,24.4,343.5v38.273a6.785,6.785,0,0,0,7,5.784c5.3,0,6.12-3.644,6.246-5.4V361.987c0-4.06,2.791-13.458,15.207-13.458,14.366,0,16.208,10.975,16.208,14.838v19.676H73.24a33.369,33.369,0,0,0-31.483-44.421Z"
                                  transform="translate(-12.626 0)" fill="#281e82" fill-rule="evenodd"/>
                        </g>
                    </svg>