<svg xmlns="http://www.w3.org/2000/svg" width="74.299" height="74.051"
                                     viewBox="0 0 74.299 74.051">
                                    <g id="toolbox" transform="translate(0 -0.746)">
                                        <g id="Group_29" data-name="Group 29" transform="translate(0 0.746)">
                                            <path id="Path_90" data-name="Path 90"
                                                  d="M11.042,50.8c.146-.071.287-.148.424-.225a2.373,2.373,0,0,0,.228.264l8.028,8.03a2.664,2.664,0,0,1,2.81-.849l1,.3.623-2.1L15.234,47.3a2.514,2.514,0,0,0-.458-.358l.021-.092a2.259,2.259,0,0,1,.074-.222c.021-.055.042-.112.063-.172s.052-.12.078-.185c.044-.108.091-.224.152-.343l.168-.34.191-.337A4.5,4.5,0,0,1,15.8,44.8c.056-.081.111-.166.168-.252.05-.067.1-.135.155-.206a6.025,6.025,0,0,1,.383-.475l.092-.1a5.619,5.619,0,0,1,.551-.554l.164-.148c.068-.064.138-.129.212-.187l.391-.284a.146.146,0,0,0,.031-.024,4,4,0,0,1,.545-.343c.08-.044.158-.087.237-.134a3.008,3.008,0,0,1,.525-.251l.277-.116c.053-.021.108-.046.162-.07a1.325,1.325,0,0,1,.174-.067l.43-.121c.085-.021.185-.05.285-.079a2.957,2.957,0,0,1,.366-.092l1.151-.168a.768.768,0,0,0,.43-.215.763.763,0,0,0-.326-1.271l-1.135-.323a4.293,4.293,0,0,0-.609-.12c-.09-.014-.182-.027-.279-.043l-.5-.077a3.015,3.015,0,0,0-.432-.032l-.156-.005c-.13,0-.224-.007-.322-.011a5.521,5.521,0,0,0-.964.021l-.22.018a7.19,7.19,0,0,0-1.1.15l-.614.124c-.189.047-.347.1-.505.145l-.194.059a10.5,10.5,0,0,0-1.27.471l-.056.023c-.349.144-.665.313-.971.476l-.254.135c-.018.009-.031.019-.049.028-.1.061-.2.121-.3.181-.265.16-.541.326-.8.516l-.424.3L11,41.73l-.42.335c-.113.087-.218.176-.318.264A3.781,3.781,0,0,0,8.2,43.39l-.9.9a6.3,6.3,0,0,0-1.122,1.647C4.766,45.665,2.853,47.747,0,50.6l6.38,6.377C8.568,54.788,11.315,52.21,11.042,50.8Z"
                                                  transform="translate(0 -32.691)" fill="#ffd800"/>
                                            <path id="Path_91" data-name="Path 91"
                                                  d="M362.677,68.952l4.02.778,4.091-5.166a3.134,3.134,0,0,1,3.149-1.092V61.247h-6.042v4.834h-6.508Z"
                                                  transform="translate(-301.604 -51.238)" fill="#ffd800"/>
                                            <path id="Path_92" data-name="Path 92"
                                                  d="M127.614,94.639l1.24-4.177h-5.416Z"
                                                  transform="translate(-103.018 -75.62)" fill="#ffd800"/>
                                            <path id="Path_93" data-name="Path 93"
                                                  d="M98.157,41.566V26.083c-.109.149-.216.3-.332.445a13.484,13.484,0,0,1-6.414,4.466h.706V41.566H75.928l7.586-10.343a6.605,6.605,0,0,0,.382-.544A11.455,11.455,0,0,0,97.924,17.273a.989.989,0,0,0-1.745-.418l-4.89,6.173L84.932,21.8l-2.654-5.907L87.17,9.717a.99.99,0,0,0-.8-1.6A11.456,11.456,0,0,0,76.52,24.83c-.151.159-.3.328-.443.508L66.261,37.016l2.376,2.376a4.982,4.982,0,0,1,1.276,2.174H68.854a3.966,3.966,0,0,0-.929-1.462L54.412,26.589l-.351,1.178.916.272a2.687,2.687,0,0,1,1.812,3.343,2.7,2.7,0,0,1-.55,1,4.7,4.7,0,0,1-.169,1.886l-1.213,4.087,3.214,3.212H52.534l2.386-8.033a3.492,3.492,0,0,0,0-2.018,1.429,1.429,0,0,0-.243-2.646l-2.121-.631,5.765-19.4.181.054,1.493-2.891.586-4.509L58.089.746,56.152,4.855,55.84,8.1l.184.055L50.259,27.558,48.052,26.9a1.431,1.431,0,0,0-1.682,2.021,3.508,3.508,0,0,0-1.154,1.728L41.977,41.566H38.948V30.994H42.96l.717-2.417a3.4,3.4,0,0,1,.665-1.277l-6.477-6.636a28.55,28.55,0,0,1-3.131,3.845l-1.826,1.825V41.566H30.942V62.714A12.086,12.086,0,0,0,43.027,74.8H88.039a12.082,12.082,0,0,0,12.083-12.083V41.566Zm-47.43-7.511a1.518,1.518,0,1,1,2.91.865l-1.973,6.647H48.5ZM45.832,32.6a1.518,1.518,0,1,1,2.911.864l-2.406,8.1H43.17Z"
                                                  transform="translate(-25.823 -0.746)" fill="#ffd800"/>
                                            <path id="Path_94" data-name="Path 94"
                                                  d="M186.135,90.461,183.8,98.33l7.539,7.538h4.041l6.721-7.995a13.631,13.631,0,0,1-.674-7.412H186.135Z"
                                                  transform="translate(-153.392 -75.62)" fill="#ffd800"/>
                                        </g>
                                    </g>
                                </svg>