<svg id="replacement" xmlns="http://www.w3.org/2000/svg" width="81.167" height="81.189" viewBox="0 0 81.167 81.189">
                                            <g id="Слой_1" data-name="Слой 1">
                                                <path id="Path_95" data-name="Path 95" d="M16.238,0a13.383,13.383,0,0,1,1.18,1.35q6.354,9.421,12.665,18.857c1.313,1.967.617,3.356-1.761,3.529-1.317.094-2.645.032-3.969.043-2.248.022-2.363.119-2.367,2.335v18.94c0,5.351.076,10.706-.047,16.054-.04,1.689.541,1.981,2.05,1.959,5.708-.079,11.424,0,17.133-.054a4.1,4.1,0,0,1,3.8,1.923c1.84,2.822,3.753,5.593,5.593,8.415,1.083,1.645.657,2.443-1.346,2.446-11.186.029-22.372.058-33.558,0C11.637,75.776,9.046,73.03,9,68.963c-.058-4.568-.018-9.14-.018-13.712V26.208c0-2.363-.054-2.407-2.432-2.421l-3.782-.018A3.057,3.057,0,0,1,0,22.372V21.65L14.434,0Z" fill="rgba(0,0,0,0.8)"/>
                                                <path id="Path_96" data-name="Path 96" d="M118.254,90.641c-2.782-3.482-5.016-7.343-7.578-10.984-2.1-3.006-4.114-6.073-6.134-9.133-1.443-2.165-.722-3.536,1.905-3.652,1.562-.069,3.128-.054,4.691-.022,1.147.025,1.595-.462,1.591-1.62q-.032-18.042,0-36.084c0-1.357-.639-1.58-1.783-1.577-5.831.032-11.662-.032-17.5.04A4.263,4.263,0,0,1,89.4,25.488c-1.768-2.8-3.673-5.5-5.474-8.274-1.01-1.555-.6-2.382,1.274-2.389,11.3-.032,22.607-.072,33.919.022,3.908.032,6.4,2.887,6.4,7.015q.029,21.109,0,42.218c0,2.76,0,2.76,2.793,2.764h3.424a2.822,2.822,0,0,1,2.724,1.414V69.34c-.476.689-.96,1.375-1.443,2.071q-6.473,9.62-12.969,19.229Z" transform="translate(-53.303 -9.452)" fill="rgba(0,0,0,0.8)"/>
                                            </g>
                                        </svg>