<svg id="woter" xmlns="http://www.w3.org/2000/svg" width="92.133" height="88.601" viewBox="0 0 92.133 88.601">
                                            <g id="Слой_1" data-name="Слой 1">
                                                <path id="Path_109" data-name="Path 109" d="M373.731,163.693c-.269.012-.537.035-.806.035H349.1c-1.13,0-1.131,0-1.131-1.152v-5.516c0-.988.027-1.012,1.043-1.016.735,0,1.471-.015,2.206,0,.484.012.712-.147.71-.677q-.018-6.178,0-12.355c0-.494-.221-.627-.672-.627q-6.213.013-12.426,0c-.5,0-.709.185-.7.69.021.784-.009,1.569,0,2.353.01.531-.231.75-.753.749-2.131-.009-4.265-.016-6.4,0-.665,0-.822-.316-.821-.912.016-3.383,0-6.766,0-10.149V121.88c0-1,.027-1.03,1.041-1.03h5.955c.883,0,.953.079.962.975,0,.685.026,1.374,0,2.059-.026.569.181.78.763.771,1.74-.029,3.482-.01,5.222-.01,5.269,0,10.539-.012,15.807.007a9.978,9.978,0,0,1,9.786,8.222,15.292,15.292,0,0,1,.194,2.633q.025,9.743.01,19.484c0,1.019.012,1.03,1.022,1.03h2.795Z" transform="translate(-281.598 -103.075)" fill="rgba(0,0,0,0.8)"/>
                                                <path id="Path_110" data-name="Path 110" d="M12.927,0H24.766c1.021,0,1.05.029,1.052,1.013V6.9c0,.927-.041.962-.941.966-.784,0-1.568.018-2.353,0-.465-.01-.663.171-.663.647q.013,6.248,0,12.5c0,.46.21.588.631.588q6.25-.013,12.5,0c.472,0,.669-.177.659-.647-.016-.735-.009-1.471,0-2.206.01-.871.084-.944.988-.946h6.03c.883,0,.938.054.938.978V36.871c0,1.789-.016,3.579.009,5.367.007.624-.212.883-.85.883q-3.126-.028-6.251,0c-.619,0-.9-.213-.875-.858.031-.685-.026-1.374.015-2.059s-.193-.9-.883-.891c-2.648.034-5.3.015-7.943.013-4.386,0-8.774.018-13.161-.01a9.979,9.979,0,0,1-9.7-9.228c-.25-4.308-.06-8.624-.1-12.935-.026-2.7,0-5.392,0-8.09,0-1.191,0-1.191-1.159-1.193-.685,0-1.372-.015-2.059,0C.19,7.881,0,7.693,0,7.219.016,5.038.022,2.856,0,.675,0,.009.4,0,.869,0H12.927Z" fill="rgba(0,0,0,0.8)"/>
                                                <path id="Path_111" data-name="Path 111" d="M505.161,470.4a6.964,6.964,0,0,1-4.235,6.211,6.659,6.659,0,0,1-7.648-1.238,6.574,6.574,0,0,1-2.05-7.06,28.214,28.214,0,0,1,2.795-6.375c1.111-1.959,2.318-3.864,3.465-5.8.306-.518.55-.553.882-.034a84.771,84.771,0,0,1,5.227,9.266,25.621,25.621,0,0,1,1.238,3.139A5.521,5.521,0,0,1,505.161,470.4Z" transform="translate(-418.72 -388.697)" fill="rgba(0,0,0,0.8)"/>
                                            </g>
                                        </svg>