<svg xmlns="http://www.w3.org/2000/svg" width="56.601" height="81.305"
                                     viewBox="0 0 56.601 81.305">
                                    <g id="diagnostics" transform="translate(-0.003 -0.023)">
                                        <g id="Слой_1" data-name="Слой 1" transform="translate(0.003 0.023)">
                                            <path id="Path_113" data-name="Path 113"
                                                  d="M.057,27.989C-.481,15.954,8.2,3.488,21.829.666A26.437,26.437,0,0,1,45.264,6.63a26.979,26.979,0,0,1,9.868,22.237,27.1,27.1,0,0,1-9.516,20.182,1.408,1.408,0,0,0-.449,1.994Q50.39,61.786,55.534,72.568a16.106,16.106,0,0,1,.788,1.8c.675,2.012.15,3.284-1.713,4.219-1.487.746-2.969,1.5-4.466,2.2-2.254,1.051-3.649.583-4.729-1.629Q39.9,67.753,34.463,56.306a1.385,1.385,0,0,0-1.8-.948A27.64,27.64,0,0,1,.076,31.528,27.4,27.4,0,0,1,.057,27.989Zm6.206-.557a21.28,21.28,0,1,0,42.54.239,21.383,21.383,0,0,0-22.1-21.218C15.765,6.656,6.026,16.663,6.263,27.432Z"
                                                  transform="translate(-0.003 -0.023)" fill="#ffd800"/>
                                            <path id="Path_114" data-name="Path 114"
                                                  d="M53.15,49.867q-2.365,6.261-4.711,12.524c-.788,2.1-1.576,4.183-2.365,6.271-.118.313-.139.788-.557.8s-.494-.449-.659-.741c-1.576-2.785-3.153-5.557-4.674-8.37a2.5,2.5,0,0,0-2.1-1.519c-2.3-.263-4.592-.617-6.9-.877-.841-.095-1.269-.426-1.314-1.314s.525-1.085,1.237-1.188c3.292-.46,6.584-.925,9.871-1.421a1.18,1.18,0,0,1,1.377.709c.557,1.051,1.124,2.078,1.716,3.1.181.313.223.867.736.788.376-.063.418-.525.525-.843l4.2-11.321q1.737-4.679,3.476-9.356c.1-.263.121-.615.5-.754.489.244.476.788.617,1.206,1.545,4.606,3.092,9.214,4.587,13.838A1.875,1.875,0,0,0,60.5,52.964c2.435.244,4.855.646,7.285.948.856.108,1.508.263,1.521,1.371.013,1.051-.473,1.343-1.411,1.437-3.568.363-7.13.77-10.69,1.185a1.318,1.318,0,0,1-1.626-1.1c-.51-1.813-1.08-3.607-1.632-5.407-.16-.525-.344-1.051-.525-1.576Z"
                                                  transform="translate(-22.024 -26.814)" fill="#ffd800"/>
                                        </g>
                                    </g>
                                </svg>