<svg xmlns="http://www.w3.org/2000/svg" width="57.379" height="89.609"
                                     viewBox="0 0 57.379 89.609">
                                    <g id="rocket" transform="translate(0.023)">
                                        <g id="Слой_1" data-name="Слой 1" transform="translate(-0.023 0)">
                                            <path id="Path_115" data-name="Path 115"
                                                  d="M42.593,62.179c-2.854,0-5.716-.057-8.561.022A3.234,3.234,0,0,1,30.6,60.077c-5.694-13.029-7.84-26.356-2.981-40.137A44.883,44.883,0,0,1,41.028.7C42.241-.347,43.2-.145,44.3.809A44.325,44.325,0,0,1,59.865,28.994c1.5,10.922-.831,21.233-5.241,31.193a3.032,3.032,0,0,1-3.236,2.018c-2.924-.066-5.857,0-8.794,0ZM49.945,24.76a7.618,7.618,0,0,0-7.088-7.312,7.493,7.493,0,0,0-7.541,7.295,7.315,7.315,0,0,0,14.629.018ZM42.32,46.666a3.7,3.7,0,0,0,4.138-3.544,3.839,3.839,0,1,0-7.655-.58A3.616,3.616,0,0,0,42.32,46.666Z"
                                                  transform="translate(-13.953 0)" fill="#ffd800"/>
                                            <path id="Path_116" data-name="Path 116"
                                                  d="M54.72,149.778c.945.352.554,1.473,1.543,1.838a6.663,6.663,0,0,0,.879-5.54c-.119-.664-.809-1.491.062-1.987s1.5.29,2.106.791a7.449,7.449,0,0,1,2.489,8.482,23.512,23.512,0,0,1-2.33,4.956c-1.108,1.908-1.57,1.878-2.911-.374-.171,2.251-.339,4.243-.47,6.239a10.715,10.715,0,0,1-2.282,5.386c-.479.677-1.161,1.152-1.543-.084-.827-2.638-2.55-4.766-4.155-6.939-1-1.346-1.24-4.173-1.719-4.226-2.133-.242-2.515-1.917-3.311-3.144-2.111-3.236-1.873-6.332.462-9.361,1.363-1.759,1.851-1.693,2.9.211,1.469,2.638,3.592,4.9,4.7,7.8.492,1.3,1.381,1.218,1.952-.066S54.188,151.1,54.72,149.778Z"
                                                  transform="translate(-23.315 -80.643)" fill="#ffd800"/>
                                            <path id="Path_117" data-name="Path 117"
                                                  d="M-.013,120.632a24.561,24.561,0,0,1,6.288-15.988c.686-.73,1.367-1.666,2.585-1.28,1.082.339,1.2,1.381,1.438,2.3A74.347,74.347,0,0,0,14,116.688c1.055,2.454.879,2.937-1.557,3.729a10.94,10.94,0,0,0-7.88,8.869c-.207,1.042-.5,2.106-1.834,2.075-1.214-.031-1.451-1.082-1.7-2A30.34,30.34,0,0,1-.013,120.632Z"
                                                  transform="translate(0.023 -57.864)" fill="#ffd800"/>
                                            <path id="Path_118" data-name="Path 118"
                                                  d="M111.847,121.648a30.946,30.946,0,0,1-1.192,8.047c-.268.879-.646,1.715-1.759,1.658s-1.451-.919-1.618-1.807a11.073,11.073,0,0,0-8.31-9.26c-1.728-.514-2.119-1.491-1.381-3.161a68.685,68.685,0,0,0,3.94-11.643c.224-.923.44-1.944,1.548-2.2s1.759.6,2.392,1.28C110.049,109.521,111.671,115.553,111.847,121.648Z"
                                                  transform="translate(-54.468 -57.842)" fill="#ffd800"/>
                                        </g>
                                    </g>
                                </svg>