<svg xmlns="http://www.w3.org/2000/svg" width="86.785" height="93.345" viewBox="0 0 86.785 93.345">
                                            <g id="almaz" transform="translate(0 -0.001)">
                                                <g id="Слой_1" data-name="Слой 1" transform="translate(0 0.001)">
                                                    <path id="Path_112" data-name="Path 112" d="M43.35,93.347H83.5c2.725,0,3.247-.4,3.255-2.768q.051-23.17,0-46.332V43.82a1.922,1.922,0,0,0-2.11-2.136c-2.777,0-5.57-.154-8.321.111-5.263.5-7.98,3.64-7.98,8.962V59.3c-.205,10.252-3.9,18.727-13.08,23.922-14.618,8.193-32.2-.948-35.174-17.907-.854-5.126-.342-10.252-.444-15.378-.12-5.741-2.631-8.279-8.424-8.321H3.751c-3.417,0-3.742.308-3.751,3.819Q0,67.494,0,89.442c0,3.674.205,3.9,3.845,3.9ZM31.611,40.522h-.06c0,1.213.068,2.426,0,3.631s-.769,1.709-2.042,1.487-2.777-1.393-3.315.376,1.435,2.059,2.563,2.563a3.571,3.571,0,0,1,2.426,3.793c-.06,3.349,0,6.69,0,10.039A6.382,6.382,0,0,0,32.8,66.9c2.922,3.417,5.775,6.835,8.68,10.252,1.709,1.965,2.563,2,4.272.051,2.563-2.879,5.024-5.81,7.493-8.749,1.615-1.922,1.316-3.289-.965-4.349-4.75-2.247-9.56-4.426-14.319-6.63-.777-.359-1.589-.649-2.332-1.068a2.767,2.767,0,0,1-1.119-3.725c.615-1.623,1.88-.76,2.888-.376,1.461.564,2.9,1.2,4.323,1.828,5.417,2.367,10.816,4.75,16.233,7.108,1.042.453,2.2.666,2.751-.615s-.632-1.709-1.444-1.974c-2.332-.854-3.118-2.461-2.888-4.81.179-1.9-.743-3.067-2.563-3.7s-3.315-1.3-4.955-1.991c-4.323-1.828-8.655-3.64-12.952-5.536a2.879,2.879,0,0,1-1.4-3.947c.931-1.487,2.119-.624,3.2-.179,4.272,1.794,8.544,3.622,12.815,5.417q3.93,1.657,7.9,3.212c.769.3,1.615.35,2.033-.564s-.12-1.487-.854-1.914a4.2,4.2,0,0,0-.76-.376A3.417,3.417,0,0,1,56.345,40.5c.128-2.358-.983-3.793-3.212-4.682-5.758-2.281-11.457-4.7-17.155-7.108a3.417,3.417,0,0,1-1.546-4.52c.965-1.709,2.247-.607,3.341-.128,6.7,2.9,13.4,5.844,20.129,8.774.906.4,1.88.632,2.4-.461s-.359-1.828-1.239-2.076c-2.307-.649-2.965-2.179-2.725-4.357s-.854-3.6-2.871-4.417c-3.161-1.282-6.288-2.666-9.4-4.024-2.8-1.222-5.63-2.4-8.39-3.716A2.888,2.888,0,0,1,34.49,9.928c.854-1.341,2.033-.6,3.041-.171,5.024,2.179,10.022,4.417,15.045,6.6,1.956.854,3.939,1.649,5.929,2.409a1.375,1.375,0,0,0,1.862-.581c.453-.854-.051-1.5-.743-1.974a3.007,3.007,0,0,0-.94-.5,3.045,3.045,0,0,1-2.324-3.571c.171-2.008-.854-3.178-2.631-3.9-2.469-.974-4.887-2.033-7.322-3.033C42.461,3.588,38.523,1.957,34.559.368c-1.239-.5-2.657-.718-3.221.914S29.817,3.11,28.373,2.614c-.854-.282-1.828-.478-2.23.547s.487,1.8,1.35,2.05c3.366.965,4.067,3.332,3.7,6.425a28.475,28.475,0,0,0,0,3.2c0,1.709-.76,2.563-2.563,2.059-1.051-.29-2.11-.333-2.461.914s.743,1.709,1.572,1.931c3.221.854,3.939,3.067,3.6,5.98a28.493,28.493,0,0,0,0,3.417c0,1.606-.581,2.486-2.367,1.88-1.008-.342-2.1-.478-2.5.769s.692,1.709,1.589,2.153a7.168,7.168,0,0,0,1.179.5,3.187,3.187,0,0,1,2.375,3.751C31.56,38.959,31.611,39.745,31.611,40.522Z" transform="translate(0 -0.001)" fill="rgba(0,0,0,0.8)"/>
                                                </g>
                                            </g>
                                        </svg>