<svg xmlns="http://www.w3.org/2000/svg" width="88.85" height="86.757" viewBox="0 0 88.85 86.757">
                                            <g id="installation" transform="translate(0.011 -0.028)">
                                                <g id="Слой_1" data-name="Слой 1" transform="translate(-0.011 0.028)">
                                                    <path id="Path_97" data-name="Path 97" d="M59.663,72.469c0,2.566-.027,5.132,0,7.705.019,1.437-.539,2.165-2.053,2.069-1.021-.065-2.053,0-3.082-.035-.613,0-1.283-.173-1.314-.863-.081-1.772-1.256-1.541-2.435-1.541-3.98.035-7.96.054-11.943,0-6.164-.077-8.861-2.882-8.861-9.05V62.476c0-3.005-1.572-4.172-4.485-3.167a32.058,32.058,0,0,0-4.315,2.05c-1.907,1-3.564.871-4.928-.925a3.054,3.054,0,0,0-.274-.274c-3.444-3.433-3.51-3.9-1.017-8.187a6.41,6.41,0,0,0,1.156-2.809,3.362,3.362,0,0,0-2.8-3.957,18.678,18.678,0,0,1-5.17-2.03,2.312,2.312,0,0,1-1.268-2.2c.023-.705,0-1.41,0-2.119,0-3.9.5-4.569,4.238-5.633.493-.143.994-.258,1.487-.385,3.467-.94,4.415-3.213,2.67-6.407-.062-.112-.127-.22-.189-.335-2.7-5.008-2.312-6.681,2.377-9.867a2.633,2.633,0,0,1,2.4-.212,20.6,20.6,0,0,1,4.057,1.768c3.171,1.772,5.294.894,6.261-2.543.089-.312.166-.62.258-.928,1.429-4.862,3.675-6.145,8.634-4.966a2.53,2.53,0,0,1,1.676,1.46A20.242,20.242,0,0,1,42.41,15.1c.952,3.51,3.217,4.442,6.392,2.635a19.444,19.444,0,0,1,3.467-1.618,3.147,3.147,0,0,1,3.814.932,3.663,3.663,0,0,0,.274.274c3.756,3.71,3.818,4.169,1.214,8.861-1.98,3.575-1.079,5.7,2.824,6.657.25.062.5.127.744.2,4.577,1.306,6.037,4.049,4.6,8.634a2.928,2.928,0,0,1-1.341,1.58,15.276,15.276,0,0,1-4.6,1.926c-2.924.74-3.968,2.97-2.55,5.687a25.121,25.121,0,0,1,2.061,4.542,2.732,2.732,0,0,1-.813,3.132c-.385.331-.728.724-1.094,1.086-3.063,3.063-3.383,3.1-7.255,1.036-1.233-.655-2.35-1.564-3.853-1.541a2.818,2.818,0,0,0-3.044,2.585,4.122,4.122,0,0,0-.039.578C43,66.009,43,66.009,46.749,66.012c1.283,0,2.57-.046,3.853,0,1.479.065,2.724-.039,2.7-2.011a1.179,1.179,0,0,1,1.121-1.133,17.63,17.63,0,0,1,2.1-.274c2.751-.119,3.155.262,3.171,2.974V72.5ZM27.339,38.539c-.385,5.3,4.377,9.208,9.035,9.246a9.146,9.146,0,0,0-.054-18.293A8.84,8.84,0,0,0,27.339,38.539Z" transform="translate(-6.869 -8.938)" fill="rgba(0,0,0,0.8)"/>
                                                    <path id="Path_98" data-name="Path 98" d="M151.963,158.081c0-2.631.027-5.263,0-7.894,0-1.368.6-2.038,1.949-2.042.9,0,1.8-.019,2.7.039a1.477,1.477,0,0,1,1.572,1.576c-.058,1.522.771,1.78,2.073,1.768q7.027-.058,14.058,0a7.571,7.571,0,0,1,7.7,7.655c.054,4.623.027,9.246,0,13.87,0,1.063.127,1.926,1.464,2.007.859.058,1.106.713,1.214,1.483.586,4.157.131,4.7-4.03,4.7-4.3,0-8.6-.065-12.9.027-1.857.039-2.6-.651-2.408-2.481.081-.771,0-1.541.039-2.312,0-.532.108-1.19.667-1.264,1.988-.27,1.718-1.714,1.726-3.044,0-1.926-.05-3.853.039-5.779.054-1.137-.25-1.676-1.468-1.649-2.246.05-4.492.027-6.738,0-.917,0-1.487.339-1.5,1.325,0,1.333-.771,1.691-2,1.738-4.169.158-4.169.189-4.169-3.957v-5.779Z" transform="translate(-96.049 -94.511)" fill="rgba(0,0,0,0.8)"/>
                                                </g>
                                            </g>
                                        </svg>