<svg xmlns="http://www.w3.org/2000/svg" width="73.318" height="73.096"
                                     viewBox="0 0 73.318 73.096">
                                    <g id="settings" transform="translate(0 -0.778)">
                                        <g id="Group_28" data-name="Group 28" transform="translate(0 0.778)">
                                            <path id="Path_89" data-name="Path 89"
                                                  d="M58.565,44.627c-1.46,0-2.555.365-3.651.365L44.328,34.405l8.762-8.762,11.317-4.016L72.8,8.121a2.3,2.3,0,0,0,0-2.19L68.422,1.549a2.249,2.249,0,0,0-2.555-.365L51.994,9.216,47.613,20.9,38.852,29.66,28.995,19.073c0-1.1.365-2.19.365-3.651A14.829,14.829,0,0,0,11.107,1.184L16.583,6.66a7.058,7.058,0,0,1,0,10.222,7.058,7.058,0,0,1-10.222,0L.52,11.771C-2.4,22.358,7.456,32.58,18.408,29.294L28.995,39.881l-4.381,4.381a6.952,6.952,0,0,0-6.936,1.825L2.71,61.055c-2.921,2.921-3.286,7.3-.73,10.222a7.193,7.193,0,0,0,10.587.365L27.9,56.309a7.163,7.163,0,0,0,1.825-6.936l4.381-4.381L44.693,55.579a12.419,12.419,0,0,0-.365,3.651A14.829,14.829,0,0,0,62.581,73.467L57.1,67.991A7.228,7.228,0,0,1,67.327,57.77L72.8,63.246A14.816,14.816,0,0,0,58.565,44.627Z"
                                                  transform="translate(0 -0.778)" fill="#ffd800"/>
                                        </g>
                                    </g>
                                </svg>